<?xml version="1.0" encoding="UTF-8"?>
<svg id="a" data-name="6" xmlns="http://www.w3.org/2000/svg" viewBox="0 0 512 401.73">
  <defs>
    <style>
      .b {
        fill: #fff;
      }

      .c {
        fill: #718176;
      }

      .d {
        opacity: .5;
      }

      .e {
        fill: #979696;
      }

      .f {
        fill: #43b471;
      }

      .g {
        fill: #d15075;
      }

      .h {
        fill: none;
      }

      .i {
        fill: #040000;
        isolation: isolate;
        opacity: .07;
      }

      .j {
        fill: #d3d340;
      }

      .f.first {
        fill: #979696;
      }

      .j.first {
        fill: #979696;
      }

      .g.first {
        animation: diod-animation-red-first 1s infinite;
      }

      .f.second {
        animation: diod-animation-green-second 5s infinite;
      }

      .j.second {
         animation: diod-animation-yellow-second 5s infinite;
      }

      .g.second {
         animation: diod-animation-red-second 5s infinite;
      }

      @keyframes diod-animation-green-second {
        0% {fill: #979696; }
        20% { fill: #979696; }
        40% { fill: #979696; }
        60% { fill: #43b471;  }
        80% { fill: #43b471;  }
        100% { fill: #979696;  }
      }

      @keyframes diod-animation-yellow-second {
        0% {fill: #979696; }
        20% { fill: #979696; }
        40% { fill: #d3d340; }
        60% { fill: #d3d340;  }
        80% { fill: #d3d340;  }
        100% { fill: #979696;  }
      }

      @keyframes diod-animation-red-second {
        0% {fill: #979696; }
        20% { fill: #d15075; }
        40% { fill: #d15075; }
        60% { fill: #d15075;  }
        80% { fill: #d15075;  }
        100% { fill: #979696;  }
      }

      @keyframes diod-animation-red-first {
        0% {fill: #979696; }
        50% { fill: #d15075; }
        100% { fill: #979696; }
      }


    </style>
  </defs>
  <polygon class="h" points="275.21 140.53 360.24 140.53 380.08 120.68 275.21 120.68 275.21 140.53"/>
  <polygon class="h" points="232.23 268.53 219.71 281.05 232.23 281.05 232.23 268.53"/>
  <g>
    <g>
      <rect class="c" x="232.25" y="69.16" width="42.98" height="332.57"/>
      <path class="c" d="m511.97,7.84v105.05c0,4.32-3.48,7.8-7.8,7.8H7.8c-4.32,0-7.8-3.49-7.8-7.8V7.84C0,3.52,3.48.04,7.8.04h496.37c4.32,0,7.8,3.48,7.8,7.8Z"/>
      <path class="c" d="m511.97,148.32v105.05c0,4.31-3.48,7.88-7.8,7.88H7.8c-4.32,0-7.8-3.57-7.8-7.88v-105.05c0-4.32,3.48-7.8,7.8-7.8h496.37c4.32,0,7.8,3.49,7.8,7.8Z"/>
      <path class="c" d="m511.97,288.88v105.05c0,4.32-3.48,7.8-7.8,7.8H7.8c-4.32,0-7.8-3.48-7.8-7.8v-105.05c0-4.31,3.48-7.8,7.8-7.8h496.37c4.32,0,7.8,3.48,7.8,7.8Z"/>
      <path class="b" d="m492.43,6.26H19.55c-7.35,0-13.31,5.96-13.31,13.31v81.54c0,7.35,5.96,13.31,13.31,13.31h472.88c7.35,0,13.31-5.96,13.31-13.31V19.57c0-7.35-5.96-13.31-13.31-13.31Z"/>
      <path class="b" d="m492.43,146.79H19.55c-7.35,0-13.31,5.96-13.31,13.31v81.54c0,7.35,5.96,13.31,13.31,13.31h472.88c7.35,0,13.31-5.96,13.31-13.31v-81.54c0-7.35-5.96-13.31-13.31-13.31Z"/>
      <path class="b" d="m492.43,287.32H19.55c-7.35,0-13.31,5.96-13.31,13.31v81.54c0,7.35,5.96,13.31,13.31,13.31h472.88c7.35,0,13.31-5.96,13.31-13.31v-81.54c0-7.35-5.96-13.31-13.31-13.31Z"/>
      <g>
        <g>
          <path class="c" d="m57.35,26.56h-13.53c-1.17,0-2.12.95-2.12,2.12v13.55c0,1.17.95,2.12,2.12,2.12h13.53c1.17,0,2.12-.95,2.12-2.12v-13.55c0-1.17-.95-2.12-2.12-2.12Z"/>
          <path class="c" d="m57.35,52.31h-13.53c-1.17,0-2.12.95-2.12,2.12v13.55c0,1.17.95,2.12,2.12,2.12h13.53c1.17,0,2.12-.95,2.12-2.12v-13.55c0-1.17-.95-2.12-2.12-2.12Z"/>
          <path class="c" d="m57.35,78.06h-13.53c-1.17,0-2.12.95-2.12,2.12v13.55c0,1.17.95,2.12,2.12,2.12h13.53c1.17,0,2.12-.95,2.12-2.12v-13.55c0-1.17-.95-2.12-2.12-2.12Z"/>
        </g>
        <g>
          <path class="c" d="m89.02,26.56h-13.53c-1.17,0-2.12.95-2.12,2.12v13.55c0,1.17.95,2.12,2.12,2.12h13.53c1.17,0,2.12-.95,2.12-2.12v-13.55c0-1.17-.95-2.12-2.12-2.12Z"/>
          <path class="c" d="m89.02,52.31h-13.53c-1.17,0-2.12.95-2.12,2.12v13.55c0,1.17.95,2.12,2.12,2.12h13.53c1.17,0,2.12-.95,2.12-2.12v-13.55c0-1.17-.95-2.12-2.12-2.12Z"/>
          <path class="c" d="m89.02,78.06h-13.53c-1.17,0-2.12.95-2.12,2.12v13.55c0,1.17.95,2.12,2.12,2.12h13.53c1.17,0,2.12-.95,2.12-2.12v-13.55c0-1.17-.95-2.12-2.12-2.12Z"/>
        </g>
        <g>
          <path class="c" d="m120.69,26.56h-13.53c-1.17,0-2.12.95-2.12,2.12v13.55c0,1.17.95,2.12,2.12,2.12h13.53c1.17,0,2.12-.95,2.12-2.12v-13.55c0-1.17-.95-2.12-2.12-2.12Z"/>
          <path class="c" d="m120.69,52.31h-13.53c-1.17,0-2.12.95-2.12,2.12v13.55c0,1.17.95,2.12,2.12,2.12h13.53c1.17,0,2.12-.95,2.12-2.12v-13.55c0-1.17-.95-2.12-2.12-2.12Z"/>
          <path class="c" d="m120.69,78.06h-13.53c-1.17,0-2.12.95-2.12,2.12v13.55c0,1.17.95,2.12,2.12,2.12h13.53c1.17,0,2.12-.95,2.12-2.12v-13.55c0-1.17-.95-2.12-2.12-2.12Z"/>
        </g>
        <g>
          <path class="c" d="m152.35,26.56h-13.53c-1.17,0-2.12.95-2.12,2.12v13.55c0,1.17.95,2.12,2.12,2.12h13.53c1.17,0,2.12-.95,2.12-2.12v-13.55c0-1.17-.95-2.12-2.12-2.12Z"/>
          <path class="c" d="m152.35,52.31h-13.53c-1.17,0-2.12.95-2.12,2.12v13.55c0,1.17.95,2.12,2.12,2.12h13.53c1.17,0,2.12-.95,2.12-2.12v-13.55c0-1.17-.95-2.12-2.12-2.12Z"/>
          <path class="c" d="m152.35,78.06h-13.53c-1.17,0-2.12.95-2.12,2.12v13.55c0,1.17.95,2.12,2.12,2.12h13.53c1.17,0,2.12-.95,2.12-2.12v-13.55c0-1.17-.95-2.12-2.12-2.12Z"/>
        </g>
        <g>
          <path class="c" d="m184.02,26.56h-13.53c-1.17,0-2.12.95-2.12,2.12v13.55c0,1.17.95,2.12,2.12,2.12h13.53c1.17,0,2.12-.95,2.12-2.12v-13.55c0-1.17-.95-2.12-2.12-2.12Z"/>
          <path class="c" d="m184.02,52.31h-13.53c-1.17,0-2.12.95-2.12,2.12v13.55c0,1.17.95,2.12,2.12,2.12h13.53c1.17,0,2.12-.95,2.12-2.12v-13.55c0-1.17-.95-2.12-2.12-2.12Z"/>
          <path class="c" d="m184.02,78.06h-13.53c-1.17,0-2.12.95-2.12,2.12v13.55c0,1.17.95,2.12,2.12,2.12h13.53c1.17,0,2.12-.95,2.12-2.12v-13.55c0-1.17-.95-2.12-2.12-2.12Z"/>
        </g>
      </g>
      <rect class="e" x="225.1" y="49.74" width="100.21" height="21.2"/>
      <circle class="f first" cx="369.34" cy="61.2" r="19.49"/>
      <circle class="j first" cx="416.66" cy="61.2" r="19.49"/>
      <circle class="g first" cx="463.99" cy="61.2" r="19.49"/>
      <g>
        <g>
          <path class="c" d="m57.35,167.08h-13.53c-1.17,0-2.12.95-2.12,2.12v13.55c0,1.17.95,2.12,2.12,2.12h13.53c1.17,0,2.12-.95,2.12-2.12v-13.55c0-1.17-.95-2.12-2.12-2.12Z"/>
          <path class="c" d="m57.35,192.84h-13.53c-1.17,0-2.12.95-2.12,2.12v13.55c0,1.17.95,2.12,2.12,2.12h13.53c1.17,0,2.12-.95,2.12-2.12v-13.55c0-1.17-.95-2.12-2.12-2.12Z"/>
          <path class="c" d="m57.35,218.59h-13.53c-1.17,0-2.12.95-2.12,2.12v13.55c0,1.17.95,2.12,2.12,2.12h13.53c1.17,0,2.12-.95,2.12-2.12v-13.55c0-1.17-.95-2.12-2.12-2.12Z"/>
        </g>
        <g>
          <path class="c" d="m89.02,167.08h-13.53c-1.17,0-2.12.95-2.12,2.12v13.55c0,1.17.95,2.12,2.12,2.12h13.53c1.17,0,2.12-.95,2.12-2.12v-13.55c0-1.17-.95-2.12-2.12-2.12Z"/>
          <path class="c" d="m89.02,192.84h-13.53c-1.17,0-2.12.95-2.12,2.12v13.55c0,1.17.95,2.12,2.12,2.12h13.53c1.17,0,2.12-.95,2.12-2.12v-13.55c0-1.17-.95-2.12-2.12-2.12Z"/>
          <path class="c" d="m89.02,218.59h-13.53c-1.17,0-2.12.95-2.12,2.12v13.55c0,1.17.95,2.12,2.12,2.12h13.53c1.17,0,2.12-.95,2.12-2.12v-13.55c0-1.17-.95-2.12-2.12-2.12Z"/>
        </g>
        <g>
          <path class="c" d="m120.69,167.08h-13.53c-1.17,0-2.12.95-2.12,2.12v13.55c0,1.17.95,2.12,2.12,2.12h13.53c1.17,0,2.12-.95,2.12-2.12v-13.55c0-1.17-.95-2.12-2.12-2.12Z"/>
          <path class="c" d="m120.69,192.84h-13.53c-1.17,0-2.12.95-2.12,2.12v13.55c0,1.17.95,2.12,2.12,2.12h13.53c1.17,0,2.12-.95,2.12-2.12v-13.55c0-1.17-.95-2.12-2.12-2.12Z"/>
          <path class="c" d="m120.69,218.59h-13.53c-1.17,0-2.12.95-2.12,2.12v13.55c0,1.17.95,2.12,2.12,2.12h13.53c1.17,0,2.12-.95,2.12-2.12v-13.55c0-1.17-.95-2.12-2.12-2.12Z"/>
        </g>
        <g>
          <path class="c" d="m152.35,167.08h-13.53c-1.17,0-2.12.95-2.12,2.12v13.55c0,1.17.95,2.12,2.12,2.12h13.53c1.17,0,2.12-.95,2.12-2.12v-13.55c0-1.17-.95-2.12-2.12-2.12Z"/>
          <path class="c" d="m152.35,192.84h-13.53c-1.17,0-2.12.95-2.12,2.12v13.55c0,1.17.95,2.12,2.12,2.12h13.53c1.17,0,2.12-.95,2.12-2.12v-13.55c0-1.17-.95-2.12-2.12-2.12Z"/>
          <path class="c" d="m152.35,218.59h-13.53c-1.17,0-2.12.95-2.12,2.12v13.55c0,1.17.95,2.12,2.12,2.12h13.53c1.17,0,2.12-.95,2.12-2.12v-13.55c0-1.17-.95-2.12-2.12-2.12Z"/>
        </g>
        <g>
          <path class="c" d="m184.02,167.08h-13.53c-1.17,0-2.12.95-2.12,2.12v13.55c0,1.17.95,2.12,2.12,2.12h13.53c1.17,0,2.12-.95,2.12-2.12v-13.55c0-1.17-.95-2.12-2.12-2.12Z"/>
          <path class="c" d="m184.02,192.84h-13.53c-1.17,0-2.12.95-2.12,2.12v13.55c0,1.17.95,2.12,2.12,2.12h13.53c1.17,0,2.12-.95,2.12-2.12v-13.55c0-1.17-.95-2.12-2.12-2.12Z"/>
          <path class="c" d="m184.02,218.59h-13.53c-1.17,0-2.12.95-2.12,2.12v13.55c0,1.17.95,2.12,2.12,2.12h13.53c1.17,0,2.12-.95,2.12-2.12v-13.55c0-1.17-.95-2.12-2.12-2.12Z"/>
        </g>
      </g>
      <rect class="e" x="225.1" y="190.27" width="100.21" height="21.2"/>
      <circle class="f second" cx="369.34" cy="201.73" r="19.49"/>
      <circle class="j second" cx="416.66" cy="201.73" r="19.49"/>
      <circle class="g second" cx="463.99" cy="201.73" r="19.49"/>
      <g>
        <g>
          <path class="c" d="m57.35,307.61h-13.53c-1.17,0-2.12.95-2.12,2.12v13.55c0,1.17.95,2.12,2.12,2.12h13.53c1.17,0,2.12-.95,2.12-2.12v-13.55c0-1.17-.95-2.12-2.12-2.12Z"/>
          <path class="c" d="m57.35,333.36h-13.53c-1.17,0-2.12.95-2.12,2.12v13.55c0,1.17.95,2.12,2.12,2.12h13.53c1.17,0,2.12-.95,2.12-2.12v-13.55c0-1.17-.95-2.12-2.12-2.12Z"/>
          <path class="c" d="m57.35,359.11h-13.53c-1.17,0-2.12.95-2.12,2.12v13.55c0,1.17.95,2.12,2.12,2.12h13.53c1.17,0,2.12-.95,2.12-2.12v-13.55c0-1.17-.95-2.12-2.12-2.12Z"/>
        </g>
        <g>
          <path class="c" d="m89.02,307.61h-13.53c-1.17,0-2.12.95-2.12,2.12v13.55c0,1.17.95,2.12,2.12,2.12h13.53c1.17,0,2.12-.95,2.12-2.12v-13.55c0-1.17-.95-2.12-2.12-2.12Z"/>
          <path class="c" d="m89.02,333.36h-13.53c-1.17,0-2.12.95-2.12,2.12v13.55c0,1.17.95,2.12,2.12,2.12h13.53c1.17,0,2.12-.95,2.12-2.12v-13.55c0-1.17-.95-2.12-2.12-2.12Z"/>
          <path class="c" d="m89.02,359.11h-13.53c-1.17,0-2.12.95-2.12,2.12v13.55c0,1.17.95,2.12,2.12,2.12h13.53c1.17,0,2.12-.95,2.12-2.12v-13.55c0-1.17-.95-2.12-2.12-2.12Z"/>
        </g>
        <g>
          <path class="c" d="m120.69,307.61h-13.53c-1.17,0-2.12.95-2.12,2.12v13.55c0,1.17.95,2.12,2.12,2.12h13.53c1.17,0,2.12-.95,2.12-2.12v-13.55c0-1.17-.95-2.12-2.12-2.12Z"/>
          <path class="c" d="m120.69,333.36h-13.53c-1.17,0-2.12.95-2.12,2.12v13.55c0,1.17.95,2.12,2.12,2.12h13.53c1.17,0,2.12-.95,2.12-2.12v-13.55c0-1.17-.95-2.12-2.12-2.12Z"/>
          <path class="c" d="m120.69,359.11h-13.53c-1.17,0-2.12.95-2.12,2.12v13.55c0,1.17.95,2.12,2.12,2.12h13.53c1.17,0,2.12-.95,2.12-2.12v-13.55c0-1.17-.95-2.12-2.12-2.12Z"/>
        </g>
        <g>
          <path class="c" d="m152.35,307.61h-13.53c-1.17,0-2.12.95-2.12,2.12v13.55c0,1.17.95,2.12,2.12,2.12h13.53c1.17,0,2.12-.95,2.12-2.12v-13.55c0-1.17-.95-2.12-2.12-2.12Z"/>
          <path class="c" d="m152.35,333.36h-13.53c-1.17,0-2.12.95-2.12,2.12v13.55c0,1.17.95,2.12,2.12,2.12h13.53c1.17,0,2.12-.95,2.12-2.12v-13.55c0-1.17-.95-2.12-2.12-2.12Z"/>
          <path class="c" d="m152.35,359.11h-13.53c-1.17,0-2.12.95-2.12,2.12v13.55c0,1.17.95,2.12,2.12,2.12h13.53c1.17,0,2.12-.95,2.12-2.12v-13.55c0-1.17-.95-2.12-2.12-2.12Z"/>
        </g>
        <g>
          <path class="c" d="m184.02,307.61h-13.53c-1.17,0-2.12.95-2.12,2.12v13.55c0,1.17.95,2.12,2.12,2.12h13.53c1.17,0,2.12-.95,2.12-2.12v-13.55c0-1.17-.95-2.12-2.12-2.12Z"/>
          <path class="c" d="m184.02,333.36h-13.53c-1.17,0-2.12.95-2.12,2.12v13.55c0,1.17.95,2.12,2.12,2.12h13.53c1.17,0,2.12-.95,2.12-2.12v-13.55c0-1.17-.95-2.12-2.12-2.12Z"/>
          <path class="c" d="m184.02,359.11h-13.53c-1.17,0-2.12.95-2.12,2.12v13.55c0,1.17.95,2.12,2.12,2.12h13.53c1.17,0,2.12-.95,2.12-2.12v-13.55c0-1.17-.95-2.12-2.12-2.12Z"/>
        </g>
      </g>
      <rect class="e" x="225.1" y="330.8" width="100.21" height="21.2"/>
      <circle class="f third" cx="369.34" cy="342.25" r="19.49"/>
      <circle class="j third" cx="416.66" cy="342.25" r="19.49"/>
      <circle class="g third" cx="463.99" cy="342.25" r="19.49"/>
    </g>
    <g class="d">
      <path class="i" d="m275.24,261.25v19.83h228.93c4.32,0,7.8,3.49,7.8,7.8v105.05c0,4.32-3.48,7.8-7.8,7.8H232.25s-133.26,0-133.26,0l55.51-55.51,20.91-20.83,44.31-44.31h12.53v-12.53l57.09-57.09,21.08-21.16,43.48-43.48,4.65-4.65,1.66-1.66h143.97c4.32,0,7.8,3.49,7.8,7.8v105.05c0,4.32-3.48,7.88-7.8,7.88h-228.94Z"/>
      <path class="i" d="m504.17,0h-3.4l-120.68,120.68h124.09c4.32,0,7.83-3.5,7.83-7.83V7.83c0-4.32-3.51-7.83-7.83-7.83Z"/>
    </g>
  </g>
</svg>